<svg xmlns="http://www.w3.org/2000/svg" width="600" height="600" viewBox="0 0 600 600">
  <defs>
    <radialGradient id="bg8" cx="50%" cy="40%" r="60%">
      <stop offset="0%" stop-color="#FAF7F4"/>
      <stop offset="100%" stop-color="#F0EBE3"/>
    </radialGradient>
    <radialGradient id="gold8" cx="30%" cy="30%" r="70%">
      <stop offset="0%" stop-color="#F5D78E"/>
      <stop offset="40%" stop-color="#D4A843"/>
      <stop offset="100%" stop-color="#B8860B"/>
    </radialGradient>
    <radialGradient id="dia8" cx="30%" cy="20%" r="80%">
      <stop offset="0%" stop-color="#FFFFFF"/>
      <stop offset="40%" stop-color="#E0EAFF"/>
      <stop offset="100%" stop-color="#8899CC"/>
    </radialGradient>
    <filter id="sh8" x="-20%" y="-20%" width="140%" height="140%">
      <feDropShadow dx="0" dy="6" stdDeviation="10" flood-color="#00000028"/>
    </filter>
  </defs>
  <rect width="600" height="600" fill="url(#bg8)"/>
  <g filter="url(#sh8)">
    <ellipse cx="300" cy="128" rx="11" ry="18" fill="none" stroke="url(#gold8)" stroke-width="5"/>
    <!-- Cross vertical bar -->
    <rect x="276" y="185" width="48" height="200" rx="10" fill="url(#gold8)"/>
    <!-- Cross horizontal bar -->
    <rect x="218" y="248" width="164" height="48" rx="10" fill="url(#gold8)"/>
    <!-- Diamond at center -->
    <circle cx="300" cy="272" r="16" fill="url(#dia8)" opacity="0.95"/>
    <!-- Diamonds along bars -->
    <circle cx="300" cy="210" r="6" fill="url(#dia8)" opacity="0.85"/>
    <circle cx="300" cy="235" r="5" fill="url(#dia8)" opacity="0.8"/>
    <circle cx="300" cy="310" r="5" fill="url(#dia8)" opacity="0.8"/>
    <circle cx="300" cy="335" r="6" fill="url(#dia8)" opacity="0.85"/>
    <circle cx="244" cy="272" r="6" fill="url(#dia8)" opacity="0.85"/>
    <circle cx="270" cy="272" r="5" fill="url(#dia8)" opacity="0.8"/>
    <circle cx="330" cy="272" r="5" fill="url(#dia8)" opacity="0.8"/>
    <circle cx="356" cy="272" r="6" fill="url(#dia8)" opacity="0.85"/>
    <!-- Highlights -->
    <path d="M284 195 C284 188 290 185 298 186" fill="none" stroke="rgba(255,255,255,0.55)" stroke-width="3" stroke-linecap="round"/>
    <path d="M228 256 C228 250 234 248 242 249" fill="none" stroke="rgba(255,255,255,0.45)" stroke-width="3" stroke-linecap="round"/>
  </g>
  <text x="300" y="540" text-anchor="middle" font-family="Georgia, serif" font-size="13" fill="#9E8A6E" letter-spacing="3">FAITH CROSS</text>
</svg>