<svg xmlns="http://www.w3.org/2000/svg" width="600" height="600" viewBox="0 0 600 600">
  <defs>
    <radialGradient id="bg5" cx="50%" cy="40%" r="60%">
      <stop offset="0%" stop-color="#FAF7F4"/>
      <stop offset="100%" stop-color="#F0EBE3"/>
    </radialGradient>
    <radialGradient id="gold5" cx="30%" cy="30%" r="70%">
      <stop offset="0%" stop-color="#F5D78E"/>
      <stop offset="40%" stop-color="#D4A843"/>
      <stop offset="100%" stop-color="#B8860B"/>
    </radialGradient>
    <radialGradient id="dia5" cx="30%" cy="20%" r="80%">
      <stop offset="0%" stop-color="#FFFFFF"/>
      <stop offset="40%" stop-color="#E0EAFF"/>
      <stop offset="100%" stop-color="#8899CC"/>
    </radialGradient>
    <filter id="sh5" x="-20%" y="-20%" width="140%" height="140%">
      <feDropShadow dx="0" dy="6" stdDeviation="10" flood-color="#00000025"/>
    </filter>
  </defs>
  <rect width="600" height="600" fill="url(#bg5)"/>
  <g filter="url(#sh5)">
    <ellipse cx="300" cy="128" rx="11" ry="18" fill="none" stroke="url(#gold5)" stroke-width="5"/>
    <!-- Infinity symbol -->
    <path d="M185 305 C185 260 225 235 265 265 C285 280 300 300 315 315 C355 345 395 320 395 275 C395 230 355 205 315 235 C295 250 280 270 265 285 C225 315 185 290 185 305Z" fill="none" stroke="url(#gold5)" stroke-width="32" stroke-linecap="round"/>
    <!-- Pavé diamonds along top curve -->
    <circle cx="210" cy="285" r="5" fill="url(#dia5)" opacity="0.9"/>
    <circle cx="232" cy="268" r="5" fill="url(#dia5)" opacity="0.9"/>
    <circle cx="256" cy="260" r="5" fill="url(#dia5)" opacity="0.9"/>
    <circle cx="279" cy="265" r="5" fill="url(#dia5)" opacity="0.9"/>
    <circle cx="300" cy="278" r="5" fill="url(#dia5)" opacity="0.9"/>
    <circle cx="321" cy="292" r="5" fill="url(#dia5)" opacity="0.9"/>
    <circle cx="344" cy="298" r="5" fill="url(#dia5)" opacity="0.9"/>
    <circle cx="368" cy="290" r="5" fill="url(#dia5)" opacity="0.9"/>
    <circle cx="386" cy="273" r="5" fill="url(#dia5)" opacity="0.9"/>
    <!-- Highlight -->
    <path d="M196 298 C196 278 208 264 222 262" fill="none" stroke="rgba(255,255,255,0.55)" stroke-width="3" stroke-linecap="round"/>
    <path d="M378 266 C390 264 400 272 400 283" fill="none" stroke="rgba(255,255,255,0.45)" stroke-width="3" stroke-linecap="round"/>
  </g>
  <text x="300" y="540" text-anchor="middle" font-family="Georgia, serif" font-size="13" fill="#9E8A6E" letter-spacing="3">INFINITY SYMBOL</text>
</svg>