<svg xmlns="http://www.w3.org/2000/svg" width="600" height="600" viewBox="0 0 600 600">
  <defs>
    <radialGradient id="bg1" cx="50%" cy="40%" r="60%">
      <stop offset="0%" stop-color="#FAF7F4"/>
      <stop offset="100%" stop-color="#F0EBE3"/>
    </radialGradient>
    <radialGradient id="gold1" cx="30%" cy="30%" r="70%">
      <stop offset="0%" stop-color="#F5D78E"/>
      <stop offset="40%" stop-color="#D4A843"/>
      <stop offset="100%" stop-color="#B8860B"/>
    </radialGradient>
    <radialGradient id="dia1" cx="30%" cy="20%" r="80%">
      <stop offset="0%" stop-color="#FFFFFF"/>
      <stop offset="40%" stop-color="#E0EAFF"/>
      <stop offset="100%" stop-color="#8899CC"/>
    </radialGradient>
    <filter id="sh1" x="-20%" y="-20%" width="140%" height="140%">
      <feDropShadow dx="0" dy="6" stdDeviation="10" flood-color="#00000025"/>
    </filter>
  </defs>
  <rect width="600" height="600" fill="url(#bg1)"/>
  <g filter="url(#sh1)">
    <ellipse cx="300" cy="128" rx="11" ry="18" fill="none" stroke="url(#gold1)" stroke-width="5"/>
    <path d="M300 450 C295 445 175 360 175 272 C175 228 206 196 248 196 C270 196 290 208 300 222 C310 208 330 196 352 196 C394 196 425 228 425 272 C425 360 305 445 300 450Z" fill="url(#gold1)"/>
    <path d="M222 258 C222 236 239 220 260 220 C272 220 282 226 288 234" fill="none" stroke="rgba(255,255,255,0.55)" stroke-width="3.5" stroke-linecap="round"/>
    <circle cx="252" cy="248" r="5.5" fill="url(#dia1)" opacity="0.9"/>
    <circle cx="273" cy="236" r="4.5" fill="url(#dia1)" opacity="0.9"/>
    <circle cx="296" cy="231" r="5.5" fill="url(#dia1)" opacity="0.9"/>
    <circle cx="318" cy="236" r="4.5" fill="url(#dia1)" opacity="0.9"/>
    <circle cx="338" cy="249" r="5.5" fill="url(#dia1)" opacity="0.9"/>
    <circle cx="243" cy="270" r="4.5" fill="url(#dia1)" opacity="0.85"/>
    <circle cx="264" cy="263" r="5.5" fill="url(#dia1)" opacity="0.85"/>
    <circle cx="287" cy="258" r="4.5" fill="url(#dia1)" opacity="0.85"/>
    <circle cx="310" cy="258" r="5.5" fill="url(#dia1)" opacity="0.85"/>
    <circle cx="333" cy="263" r="4.5" fill="url(#dia1)" opacity="0.85"/>
    <circle cx="354" cy="270" r="5.5" fill="url(#dia1)" opacity="0.85"/>
  </g>
  <text x="300" y="540" text-anchor="middle" font-family="Georgia, serif" font-size="13" fill="#9E8A6E" letter-spacing="3">ETERNAL HEART</text>
</svg>